<svg version="1.1" id="Layer_1" xmlns="http://www.w3.org/2000/svg" xmlns:xlink="http://www.w3.org/1999/xlink" x="0px" y="0px" viewBox="0 0 233.545 233.545" style="enable-background:new 0 0 233.545 233.545;" xml:space="preserve">
	<g>
		<g>
			<g>
				<path d="M216.395,64.113c1.276-11.244,0.224-22.328-3.304-32.312c-5.408-15.304-15.808-26.22-29.28-30.736h-0.004
				c-1.208-0.404-2.424-0.728-3.652-1.016c-0.796-0.18-1.572,0.148-2.032,0.78c-10.64,2.576-24.684,29.336-34.1,57.448
				c-5.52,16.476-9.176,32.504-10.296,45.132c-0.004,0.036-0.004,0.068-0.008,0.104c-6.152-3.188-15.956-5.556-27.496-7.068
				c0.424-2.416,0.588-4.892,0.276-7.476c-0.364-2.996-1.184-6.084-2.508-9.436c-1.644-4.172-3.424-7.36-5.608-10.04
				c-0.38-0.468-0.792-0.916-1.204-1.364l-2.024-2.244l-0.632,2.136c-0.184,0.616-0.14,1.116-0.104,1.548
				c0.216,2.716-0.112,4.708-1.052,6.46c-1.116,2.076-2.94,3.008-5.42,2.752c-2.388-0.236-4.164-1.46-5.424-3.752
				c-1.072-1.948-1.28-4.18-0.652-7.024l0.212-0.94c0.436-1.896,0.888-3.86,0.752-5.944c-0.28-4.332-3.416-6.888-6.444-8.812
				l-2.248-1.152l0.568,3.824c0.084,0.492,0.172,0.984,0.232,1.476c0.268,2.192-0.644,3.836-2.872,5.172
				c-2.084,1.248-4.244,2.54-5.948,4.4c-3.228,3.524-4.644,6.816-4.452,10.356c0.072,1.324,0.308,2.62,0.532,3.876
				c0.104,0.592,0.212,1.184,0.304,1.78c0.256,1.7-0.016,2.816-0.916,3.74c-1.396,1.428-2.66,1.924-4.228,1.684
				c-1.168-0.188-2.104-0.808-2.868-1.904c-1.248-1.796-1.604-3.848-1.08-6.264c0.176-0.812,0.46-1.608,0.74-2.412
				c0.14-0.392,0.276-0.784,0.404-1.184l1.46-4.536l-3.496,3.24c-2.424,2.248-4.204,4.436-5.44,6.704
				c-2.404,4.42-3.168,9.42-2.28,14.852c-21.596,2.388-38.428,7.572-38.428,15.412c0,0.424,0.14,0.824,0.236,1.232
				c-0.092,1.076-0.236,2.172-0.236,3.228c0,19.696,13.784,36.88,34.132,45.968l-26.288,62.984c-1.34,3.22,0.184,6.928,3.4,8.272
				c0.796,0.332,1.616,0.488,2.428,0.488c2.476,0,4.832-1.464,5.844-3.888l16.62-39.816h26.324v20.064
				c0,3.488,2.836,6.324,6.324,6.324c3.488,0,6.324-2.836,6.324-6.324v-20.064h26.324l16.62,39.816
				c1.012,2.42,3.368,3.888,5.844,3.888c0.812,0,1.632-0.156,2.424-0.488c1.556-0.648,2.764-1.868,3.408-3.432
				c0.644-1.568,0.64-3.284-0.008-4.84l-26.844-64.316c14.776-7.388,25.64-19.188,29.596-33.044c0.768,0.32,1.528,0.652,2.324,0.916
				c4.416,1.476,8.98,2.212,13.6,2.212c9.476,0,19.184-3.084,28.284-9.1c9.996-6.616,18.324-16.248,24.284-27.728
				c1.368,0.396,2.784,0.672,4.276,0.672c8.576,0,15.556-6.976,15.556-15.556C227.179,71.937,222.627,66.141,216.395,64.113z
				 M185.195,18.285c0.068-1.564,0.096-3.072,0.064-4.48l6.5,0.612c0.288,1.384,0.524,2.88,0.668,4.552L185.195,18.285z
				 M192.483,20.109c0.1,1.524,0.136,3.152,0.116,4.876l-7.848-0.74c0.176-1.676,0.3-3.276,0.388-4.828L192.483,20.109z
				 M189.039,7.737c1.04,1.3,1.856,3.164,2.452,5.512l-6.284-0.592c-0.132-2.8-0.476-5.272-1.092-7.268
				C185.819,6.045,187.447,6.853,189.039,7.737z M184.615,25.365l7.972,0.752c-0.008,0.288,0.004,0.548-0.008,0.844
				c-0.06,1.728-0.188,3.524-0.356,5.364l-8.46-0.8C184.103,29.405,184.387,27.353,184.615,25.365z M183.583,32.641l8.52,0.804
				c-0.188,1.856-0.428,3.76-0.712,5.708l-8.864-0.836C182.915,36.393,183.274,34.493,183.583,32.641z M191.223,40.273
				c-0.244,1.572-0.52,3.168-0.824,4.788l-9.14-0.864c0.372-1.608,0.716-3.192,1.04-4.764L191.223,40.273z M176.503,61.853
				c0.492-1.608,0.968-3.22,1.432-4.828l9.544,0.9c-0.46,1.736-0.952,3.488-1.472,5.252l0.04-0.424L176.503,61.853z
				 M159.551,103.881c1.044-1.98,2.08-4.056,3.104-6.192l9.352,0.884c-1.124,2.164-2.268,4.224-3.428,6.2l0.004-0.044
				L159.551,103.881z M163.815,112.245c-0.004,0.004-0.008,0.012-0.012,0.016c-1.616,2.288-3.2,4.276-4.74,6l-7.9-0.744
				c1.432-1.924,2.872-4.076,4.32-6.448l-0.036,0.388L163.815,112.245z M155.911,110.369c1.02-1.704,2.04-3.524,3.056-5.408
				l8.988,0.844c-1.132,1.888-2.276,3.688-3.428,5.372L155.911,110.369z M163.179,96.601c0.672-1.42,1.336-2.864,1.992-4.336
				l9.52,0.896c-0.704,1.48-1.42,2.916-2.136,4.324L163.179,96.601z M165.659,91.177c0.684-1.556,1.356-3.14,2.02-4.74l9.632,0.908
				c-0.696,1.612-1.404,3.184-2.124,4.732L165.659,91.177z M168.123,85.345c0.684-1.668,1.352-3.352,2.008-5.052l9.684,0.972
				c-0.668,1.692-1.348,3.352-2.044,4.988L168.123,85.345z M170.551,79.201c0.596-1.56,1.176-3.132,1.744-4.708l9.72,0.916
				c-0.58,1.612-1.172,3.196-1.78,4.764L170.551,79.201z M172.695,73.397c0.56-1.572,1.104-3.152,1.632-4.728
				c0.104-0.304,0.196-0.612,0.3-0.92l-0.088,0.96l9.472,0.888c-0.196,0.596-0.372,1.188-0.572,1.784
				c-0.336,0.992-0.692,1.952-1.036,2.932L172.695,73.397z M174.679,67.585c0.508-1.536,1-3.076,1.48-4.62l9.644,0.904
				c-0.456,1.536-0.94,3.08-1.44,4.628L174.679,67.585z M178.247,55.921c0.448-1.588,0.876-3.168,1.292-4.744l9.392,0.884
				c-0.364,1.568-0.756,3.156-1.172,4.756L178.247,55.921z M179.835,50.069c0.412-1.596,0.8-3.18,1.172-4.756l9.18,0.864
				c-0.308,1.568-0.644,3.16-1.008,4.772L179.835,50.069z M133.443,107.777c-0.112,2.672-0.068,5.044,0.104,7.164
				c-0.256,0.156-0.484,0.312-0.768,0.468c-2.116-4.668-14.452-7.972-30.2-9.792c1.108-1.7,1.968-3.468,2.62-5.292
				C119.059,102.125,128.787,104.953,133.443,107.777z M49.563,107.205c1.708,2.288,3.812,4.372,6.352,6.212
				c0.344,0.248,0.708,0.416,1.056,0.652l-13.008,8.644c-7.156-0.844-13.288-1.96-18.284-3.224L49.563,107.205z M23.215,118.841
				c-3.932-1.116-6.972-2.32-9.132-3.528c2.848-3.36,14.792-6.7,32.38-8.428L23.215,118.841z M58.567,115.049
				c4.592,2.74,9.564,4.26,14.876,4.536l-6.548,4.676c-7.412-0.168-14.204-0.608-20.316-1.248L58.567,115.049z M76.295,119.641
				c1.46-0.044,2.928-0.112,4.428-0.336c8.8-1.312,15.788-5.388,20.812-12.084c3.392,0.384,6.544,0.832,9.436,1.324l-21.484,15.344
				c-5.004,0.288-10.332,0.452-15.996,0.452c-1.272,0-2.48-0.028-3.72-0.044L76.295,119.641z M76.215,95.209
				c-0.464-1.152-1.104-2.248-1.724-3.308l-0.192-0.324c-0.424-0.736-0.884-1.452-1.34-2.172c-0.804-1.264-1.636-2.576-2.256-3.916
				c-1.32-2.848-0.744-5.54,1.744-8.168c-0.012,0.592-0.012,1.2,0.044,1.808c0.212,2.2,1.356,4.168,3.316,5.688
				c1.136,0.888,2.344,1.716,3.516,2.52c0.912,0.62,1.824,1.248,2.7,1.896c6.6,5.04,10.1,10.84,9.6,15.916
				c-0.392,3.944-3.108,7.264-7.864,9.596c-4.808,1.592-9.664,1.736-14.424,0.408c-5.048-1.404-8.516-4.076-10.304-7.944
				c-1.304-2.824-1.272-5.7,0.104-8.776c0.184,0.316,0.364,0.62,0.56,0.916c1.556,2.364,4.128,3.768,7.248,3.952
				c3.304,0.208,6.624-1.056,8.416-3.176C76.611,98.637,76.911,96.937,76.215,95.209z M113.171,109.065l-0.104-0.148
				c5.668,1.064,10.18,2.316,13.32,3.648l-13.164,8.664c-5.86,1.052-12.756,1.904-20.516,2.452L113.171,109.065z M128.191,113.417
				c1.68,0.896,2.744,1.816,3.108,2.724c-3.2,1.492-7.792,2.944-13.636,4.204L128.191,113.417z M49.283,82.305
				c0.42-0.776,0.916-1.544,1.496-2.312c-0.312,2.596,0.248,4.944,1.676,6.996c1.156,1.656,2.676,2.644,4.52,2.936
				c2.356,0.384,4.452-0.408,6.408-2.404c1.928-1.972,1.832-4.284,1.596-5.852c-0.092-0.62-0.204-1.236-0.316-1.852
				c-0.224-1.236-0.432-2.404-0.496-3.568c-0.156-2.828,1.056-5.54,3.8-8.536c1.46-1.592,3.368-2.736,5.388-3.944
				c3.092-1.856,4.46-4.416,4.068-7.616c0-0.008,0-0.016-0.004-0.028c1.92,1.632,2.804,3.232,2.928,5.16
				c0.112,1.72-0.28,3.42-0.696,5.224l-0.22,0.96c-0.764,3.472-0.476,6.256,0.908,8.764c1.668,3.02,4.144,4.712,7.364,5.032
				c3.448,0.316,6.268-1.096,7.864-4.06c1.004-1.872,1.336-3.8,1.4-5.496c1.788,2.344,3.296,5.14,4.712,8.732
				c1.248,3.156,2.012,6.044,2.352,8.82c0.708,5.864-0.696,11.268-4.172,16.072c-4.636,6.396-11.196,10.264-19.5,11.5
				c-0.752,0.111-1.495,0.188-2.232,0.243c2.012-0.179,4.025-0.596,6.029-1.263l0.072-0.032c5.148-2.516,8.096-6.156,8.524-10.52
				c0.548-5.564-3.016-11.576-10.044-16.936c-0.896-0.66-1.82-1.292-2.744-1.924c-1.156-0.792-2.352-1.608-3.46-2.476
				c-1.728-1.344-2.696-2.992-2.88-4.904c-0.064-0.664-0.044-1.364-0.028-2.04c0.004-0.192,0.008-0.384,0.012-0.576l0.08-0.032
				l-0.088-0.464l-0.584,0.056l-0.188-0.468c-0.044,0.016-0.188,0.072-0.316,0.188c-3.544,3.24-4.5,6.7-2.832,10.284
				c0.652,1.408,1.5,2.752,2.328,4.044c0.448,0.708,0.9,1.416,1.316,2.136l0.192,0.328c0.596,1.024,1.22,2.084,1.652,3.156
				c0.536,1.332,0.308,2.596-0.672,3.764c-1.548,1.832-4.58,2.94-7.484,2.772c-2.752-0.16-5.008-1.388-6.364-3.444
				c-0.24-0.368-0.46-0.744-0.684-1.14l-0.828-1.4l-0.608,0.964c-0.072,0.104-0.124,0.188-0.168,0.276
				c-1.74,3.548-1.86,6.996-0.352,10.256c1.932,4.184,5.648,7.068,11.028,8.564c2.208,0.612,4.436,0.92,6.664,0.932
				c-6.68,0.092-12.832-1.82-18.316-5.788c-5.648-4.084-9.048-9.4-10.104-15.796C46.455,90.641,47.115,86.289,49.283,82.305z
				 M45.767,99.825c0.588,1.828,1.364,3.564,2.34,5.2c-17.304,1.532-31.756,4.72-35.444,9.424c-1.504-1.056-2.308-2.1-2.308-3.072
				C10.351,107.393,23.359,102.265,45.767,99.825z M23.279,228.565c-0.744,1.776-2.792,2.616-4.56,1.876
				c-1.776-0.74-2.616-2.788-1.876-4.564l26.288-62.984c2.136,0.86,4.34,1.616,6.6,2.296L23.279,228.565z M68.839,187.009h-25.14
				l8.776-21.024c5.204,1.356,10.688,2.196,16.364,2.508V187.009z M78.651,209.905c0,1.92-1.564,3.488-3.488,3.488
				s-3.488-1.568-3.488-3.488v-20.064h6.976V209.905z M78.651,187.009h-6.976v-18.404c0.608,0.012,1.204,0.072,1.82,0.072
				c1.74,0,3.452-0.084,5.156-0.188V187.009z M81.487,187.009v-18.752c5.576-0.524,10.956-1.552,16.024-3.088l9.116,21.84H81.487z
				 M133.483,225.877c0.356,0.856,0.36,1.804,0.004,2.668c-0.356,0.868-1.024,1.54-1.876,1.896c-1.78,0.744-3.828-0.1-4.564-1.876
				l-26.844-64.32c2.228-0.768,4.396-1.612,6.492-2.56L133.483,225.877z M73.495,164.705c-34.056,0-61.816-20.992-63.016-47.132
				c9.916,7.064,36.564,10.736,63.016,10.736c24.548,0,49.284-3.16,60.648-9.256c0.388,1.768,0.916,3.26,1.596,4.448
				C130.959,146.809,104.927,164.705,73.495,164.705z M139.471,123.013c0.1-0.204,0.188-0.416,0.292-0.616
				c-1.724-1.864-3.068-7.464-2.08-18.64c1.092-12.324,4.68-28.032,10.104-44.224c11.644-34.748,25.664-54.536,31.652-55.056
				c3.584,5.212,2.584,28.712-8.876,62.932C158.911,102.189,145.327,121.405,139.471,123.013z M146.031,125.409l-0.032,0.1
				c-0.656-0.152-1.324-0.252-1.972-0.44c2.028-1.468,4.16-3.704,6.332-6.492l7.732,0.728
				C153.395,124.249,149.167,126.473,146.031,125.409z M180.871,118.141c-9.44,6.236-19.524,9.008-29.192,8.252
				c2.652-1.204,5.536-3.52,8.56-6.884l0.252,0.024l0.032-0.336c1.528-1.724,3.084-3.704,4.668-5.948
				c7.316-10.372,14.368-25.044,19.86-41.316c5.492-16.272,8.768-32.22,9.232-44.904c0.184-5.036-0.104-9.32-0.816-12.804
				l0.072-0.78l-0.276-0.024c-0.336-1.444-0.752-2.74-1.248-3.868c7.708,5.248,13.716,13.332,17.336,23.576
				c3.296,9.332,4.284,19.704,3.124,30.252c-0.288-0.016-0.56-0.088-0.852-0.088c-8.58,0-15.556,6.976-15.556,15.556
				c0,5.664,3.076,10.58,7.612,13.3C198.043,102.913,190.231,111.945,180.871,118.141z M211.623,90.425
				c-2.192,0-4.22-0.644-5.968-1.708c0.004-0.008,0.004-0.016,0.008-0.024c-0.064-0.048-0.132-0.084-0.192-0.132
				c-0.008,0.016-0.016,0.028-0.02,0.044c-3.24-2.056-5.412-5.652-5.412-9.768c0-6.388,5.2-11.584,11.588-11.584
				s11.584,5.2,11.584,11.584C223.211,85.221,218.011,90.425,211.623,90.425z" />
				<path d="M53.547,63.073c1.412,0,2.556-1.032,2.556-2.296c0-1.264-1.148-2.292-2.556-2.292s-2.56,1.028-2.56,2.292
				C50.987,62.041,52.139,63.073,53.547,63.073z M53.547,59.617c0.784,0,1.424,0.52,1.424,1.16c0,0.64-0.64,1.164-1.424,1.164
				s-1.424-0.524-1.424-1.164C52.123,60.137,52.763,59.617,53.547,59.617z" />
				<path d="M92.455,50.665c1.412,0,2.56-1.032,2.56-2.296c0-1.264-1.148-2.292-2.56-2.292s-2.56,1.028-2.56,2.292
				C89.895,49.633,91.043,50.665,92.455,50.665z M92.455,47.205c0.784,0,1.424,0.52,1.424,1.16s-0.64,1.164-1.424,1.164
				s-1.424-0.524-1.424-1.164S91.671,47.205,92.455,47.205z" />
				<path d="M70.303,36.461c0.124,0.016,0.248,0.024,0.372,0.024c1.236,0,2.328-0.812,2.528-1.936c0.1-0.568-0.04-1.14-0.388-1.616
				c-0.4-0.548-1.044-0.916-1.764-1.012c-1.384-0.188-2.688,0.676-2.904,1.916c-0.1,0.568,0.04,1.14,0.388,1.616
				C68.939,35.997,69.583,36.361,70.303,36.461z M69.267,34.025c0.1-0.58,0.708-1,1.404-1c0.076,0,0.156,0.004,0.232,0.016
				c0.416,0.056,0.78,0.256,1,0.556c0.116,0.16,0.244,0.42,0.184,0.752c-0.112,0.648-0.832,1.116-1.636,0.984
				c-0.416-0.056-0.78-0.256-1-0.556C69.335,34.617,69.207,34.357,69.267,34.025z" />
				<path d="M82.287,47.105c0.124,0.016,0.244,0.024,0.364,0.024c1.24,0,2.336-0.812,2.536-1.936c0.1-0.568-0.04-1.14-0.388-1.62
				c-0.4-0.544-1.04-0.912-1.764-1.008c-1.392-0.196-2.688,0.676-2.904,1.916c-0.1,0.568,0.04,1.14,0.388,1.616
				C80.923,46.641,81.563,47.009,82.287,47.105z M81.251,44.673c0.1-0.584,0.708-1,1.404-1c0.076,0,0.156,0.004,0.232,0.016
				c0.416,0.056,0.78,0.256,1,0.556c0.116,0.16,0.244,0.42,0.184,0.752c-0.112,0.644-0.832,1.12-1.636,0.984
				c-0.416-0.056-0.78-0.256-1-0.556C81.319,45.265,81.191,45.005,81.251,44.673z" />
			</g>
		</g>
	</g>
</svg>
