<svg version="1.1" id="Capa_1" xmlns="http://www.w3.org/2000/svg" xmlns:xlink="http://www.w3.org/1999/xlink" x="0px" y="0px"
	 viewBox="0 0 59 59" style="enable-background:new 0 0 59 59;" xml:space="preserve">
<g>
	<g>
		<path d="M43.879,5c0-0.48-0.341-0.893-0.813-0.982l-21-4c-0.294-0.055-0.596,0.022-0.825,0.212S20.879,0.702,20.879,1v2h-12
			c-0.553,0-1,0.448-1,1v50h-5v2h6h12v2c0,0.29,0.126,0.565,0.345,0.755C21.406,58.914,21.639,59,21.879,59
			c0.047,0,0.095-0.003,0.142-0.01L42.949,56h7.93v-2h-7V5z M9.879,54V5h11v49H9.879z M41.879,54.132l-19,2.714V55V4V2.208l19,3.619
			V54.132z"/>
		<rect x="24.879" y="28" width="3" height="2"/>
	</g>
</g>
</svg>