<svg version="1.1" id="Capa_1" xmlns="http://www.w3.org/2000/svg" xmlns:xlink="http://www.w3.org/1999/xlink" x="0px" y="0px"
	 viewBox="0 0 214.844 214.844" style="enable-background:new 0 0 214.844 214.844;" xml:space="preserve">
<g>
	<path style="fill:#1D1D1B;" d="M209.844,103.377c-0.37-8.814-1.011-17.655-1.372-26.496c0.111-0.02,0.225-0.029,0.335-0.049
		c0.921-0.172,0.688-1.612-0.218-1.609c-0.062,0-0.124,0.007-0.187,0.008c-0.219-5.986-0.294-11.97-0.04-17.945
		c0.649-15.271,3.417-30.291,3.389-45.609c-0.001-0.614-0.277-1.04-0.66-1.313c-0.026-0.151-0.036-0.3-0.107-0.456
		c-4.937-10.862-22.697-7.575-32.252-7.92C154.983,1.13,131.223,0.57,107.46,0.301C83.718,0.033,59.905-0.253,36.167,0.389
		c-6.149,0.166-15.325-1.031-14.849,7.089c-2.438,15.28-0.411,31.684-0.028,47.037c0.21,8.444-1.596,19.099,6.117,23.254
		c-0.285,0.57-0.043,1.39,0.81,1.464c26.419,2.312,53.183,2.625,79.888,2.777c0.07,0.218,0.151,0.448,0.234,0.756
		c0.267,0.995,0.031,1.978-0.23,2.944c-0.13,0.483,0.101,0.821,0.424,1.011c-11.886-0.282-24.067-0.819-35.893,0.045
		c0.391-1.517,0.797-3.224,0.312-4.437c-0.355-0.888-1.366-1.008-1.935-0.253c-0.877,1.163-0.855,3.203-0.88,4.886
		c-1.527,0.139-3.051,0.292-4.563,0.487c-0.063,0.008-0.087,0.056-0.144,0.072c-0.227-0.379-0.635-0.57-1.195-0.61
		c-0.338-0.024-0.642,0.201-0.816,0.468c-1.083,1.658-0.551,4.322-0.505,6.193c0,0.008,0.001,0.016,0.001,0.025
		c-17.396-2.458-34.764-4.988-52.139-7.578c-0.181-0.158-0.39-0.283-0.625-0.312c-4.52-0.558-6.923,5.571-7.051,9.172
		c-0.077,2.178,0.366,10.358,4.289,8.903c0.132,0.236,0.35,0.43,0.664,0.522c8.352,2.445,18.579,0.123,27.169-0.434
		c9.379-0.607,18.743-1.25,28.023-2.746c0.031,0.612,0.045,1.225,0.081,1.836c0.022,0.374,0.179,0.652,0.39,0.863
		c-0.6,0.614-0.352,1.883,0.766,1.926c8.033,0.313,16.075,0.426,24.119,0.462c-0.767,2.744,0.896,6.491,3.483,7.4
		c2.272,0.798,4.734-0.229,6.227-2.005c1.109-1.319,2.049-3.734,1.241-5.388c5.528-0.015,11.056-0.04,16.581-0.059
		c0.825-0.003,1.286-0.541,1.424-1.164c0.314-0.104,0.596-0.291,0.683-0.645c0.637-2.591,0.563-5.325,0.479-7.979
		c-0.083-2.629-0.006-5.522-0.923-8.007c-0.163-0.442-0.621-0.72-1.089-0.817c-0.192-0.393-0.556-0.699-1.125-0.704
		c-2.028-0.018-4.069-0.055-6.12-0.101c0.147-0.072,0.301-0.134,0.41-0.289c0.717-1.024,1.264-2.909,1.029-4.43
		c13.771,0.074,27.524,0.123,41.199,0.397c-0.3,32.345,0.055,64.963,1.134,97.414c-0.244-0.137-0.524-0.233-0.885-0.212
		c-13.568,0.77-27.124,1.249-40.68,1.604c5.814-4.045,9.471-10.287,11.784-17.567c10.712,5.043,23.428-2.553,25.185-14.033
		c1.848-12.069-8.597-25.254-21.188-21.271c0.012-1.335,0.02-2.651,0.026-3.942c0.004-0.831-0.564-1.273-1.197-1.369
		c0.145-0.822-0.293-1.729-1.381-1.692c-23.859,0.8-48.191-0.044-71.951,2.007c-0.174,0.015-0.278,0.103-0.389,0.182
		c-0.519-0.127-1.091,0.092-1.065,0.803c0.829,22.611,4.352,47.878,23.761,57.636c-13.472,0.236-26.948,0.472-40.436,0.856
		c-0.816,0.023-1.068,0.732-0.89,1.319c-12.966,1.704-18.334,22.9-5.285,28.844c6.625,3.018,16.421,1.403,23.426,1.476
		c11.698,0.123,23.397,0.167,35.096,0.137c23.386-0.06,46.816-0.136,70.18-1.252c0.102-0.005,0.179-0.045,0.27-0.067
		c9.304-0.27,18.579-0.567,27.883-0.074c5.155,0.274,11.515,1.909,16.549,0.229c6.234-2.08,9.416-8.305,8.058-14.253
		C212.76,167.505,211.174,135.083,209.844,103.377z M8.361,102.029c-0.262-0.006-0.447,0.11-0.62,0.231
		c-0.129-0.094-0.266-0.185-0.462-0.21c-1.953-0.251-1.443-7.749-1.07-9.127c0.586-2.164,1.921-3.27,3.432-4.481
		c0.025,0.007,0.038,0.022,0.064,0.028c17.374,3.848,35.517,6.257,53.299,7.131c0.049,1.449,0.125,2.897,0.19,4.345
		C44.864,99.283,26.649,102.472,8.361,102.029z M96.306,109.901c-0.881,1.094-2.362,1.745-3.706,1.136
		c-1.072-0.487-1.723-1.694-1.913-2.816c-0.127-0.754-0.014-1.389,0.221-1.992c2.078,0.005,4.156-0.004,6.235-0.007
		c-0.055,0.534,0.048,1.007,0.022,1.585C97.132,108.566,96.778,109.316,96.306,109.901z M115.324,89.519
		c-0.116,2.274,0.231,4.579,0.345,6.855c0.112,2.231,0.093,4.492,0.369,6.711c-16.705-0.058-33.438-0.233-50.134,0.371
		c0.051-0.146,0.088-0.305,0.08-0.494c-0.095-2.543-0.233-5.087-0.38-7.628c-0.068-1.175-0.139-2.349-0.24-3.521
		c-0.058-0.587-0.115-1.173-0.173-1.76c0.156-0.601-0.025-0.97-0.363-1.23c0.039,0.005,0.077,0.003,0.116,0.001
		c0.136,0.168,0.337,0.296,0.631,0.326C81.901,90.783,98.896,89.363,115.324,89.519z M127.159,139.286
		c2.416,0.544,4.929,0.142,7.226,1.398c2.214,1.21,3.448,3.465,3.167,6.004c-0.643,5.821-7.015,5.894-11.639,5.883
		C126.567,148.222,126.945,143.74,127.159,139.286z M125.654,154.226c6.131,1.16,13.982,0.239,14.813-7.342
		c0.751-6.846-6.876-11.849-13.202-10.106c0.08-2.212,0.132-4.411,0.161-6.565c10.441-0.698,19.163,6.213,18.462,17.506
		c-0.709,11.434-11.804,16.349-21.728,13.468C124.767,158.939,125.252,156.605,125.654,154.226z M53.403,124.903
		c23.269,2.689,47.846,1.05,71.17-0.561c-0.001,0.027-0.016,0.045-0.016,0.073c-0.372,21.704-0.314,50.466-21.172,57.017
		c-6.278,0.142-12.555,0.268-18.833,0.381C58.638,176.392,56.237,147.497,53.403,124.903z M90.357,211.636
		c-10.635,0.047-21.27,0.025-31.905-0.06c-4.994-0.04-11.033,0.885-15.952-0.173c-2.127-0.032-4.254-0.065-6.38-0.097
		c-15.49-10.981-15.027-19.474,1.39-25.48c0.429-0.019,0.709-0.364,0.796-0.734c17.192,1.031,34.51,1.206,51.832,0.884
		c3.535,0.289,6.73,0.195,9.625-0.226c17.591-0.515,35.163-1.494,52.588-2.665c0.421-0.028,0.737-0.2,0.999-0.421
		c0.323,9.35,0.681,18.692,1.129,28.001C133.103,210.896,111.735,211.542,90.357,211.636z M178.562,24.528
		c9.313,1.059,19.997,1.58,29.227-0.751c-0.779,10.47-2.212,20.871-2.786,31.373c-7.394,0.991-14.4,1.832-21.904,1.505
		c-1-0.044-0.96,1.43,0,1.53c7.104,0.742,14.765,0.667,21.786-1.012c-0.002,0.038-0.005,0.075-0.007,0.113
		c-0.122,2.849-0.154,5.702-0.142,8.554c-7.157-0.378-14.491,0.51-21.64,0.902c-1.075,0.059-1.09,1.716,0,1.685
		c7.167-0.208,14.543,0.029,21.66-0.922c0.03,2.622,0.085,5.245,0.183,7.868c-6.387,0.331-12.814,1.33-19.139,2.011
		c-1.01,0.108-1.041,1.691,0,1.607c6.352-0.512,12.86-0.74,19.211-1.598c0.114,2.695,0.245,5.39,0.394,8.084
		c-7.424,0.293-14.878,1.249-22.312,1.534c-0.655,0.025-0.658,0.999,0,1.02c7.306,0.23,15.088,0.357,22.404-0.763
		c0.177,3.135,0.362,6.268,0.53,9.399c-7.291,0.238-14.782,1.456-22.024,2.02c-0.863,0.067-0.887,1.346,0,1.36
		c7.062,0.111,15.034,0.17,22.131-1.287c0.078,1.539,0.156,3.078,0.22,4.616c0.05,1.195,0.066,2.39,0.106,3.585
		c-7.53-0.782-15.805,0.564-23.36,1.009c-0.867,0.051-0.883,1.366,0,1.36c7.581-0.05,15.919,0.72,23.415-0.526
		c0.083,2.669,0.181,5.338,0.238,8.008c-2.439-0.318-4.905-0.453-7.36-0.665c-3.929-0.339-8.149-1.218-12.085-1.017
		c-2.208,0.113-4.505,0.702-4.112,3.269c0.109,0.711,1.308,0.548,1.26-0.171c-0.176-2.625,11.486-0.437,12.923-0.269
		c3.115,0.363,6.271,0.875,9.417,1.067c0.031,1.64,0.071,3.279,0.096,4.919c-7.472,0.494-14.163,1.26-21.701-0.229
		c-0.986-0.195-1.415,1.294-0.419,1.52c6.996,1.587,15.082,2.534,22.146,0.611c0.041,3,0.095,6,0.122,9
		c-7.256-0.885-14.869-0.503-22.134-0.635c-0.892-0.016-0.876,1.318,0,1.375c7.261,0.478,14.846,1.534,22.152,1.229
		c0.023,2.973,0.069,5.947,0.083,8.92c-3.434,0.256-6.849,0.896-10.301,1.07c-4.29,0.217-8.533,0.024-12.818-0.199
		c-0.794-0.041-1,1.297-0.191,1.412c7.161,1.014,15.964,1.701,23.319-0.016c0.015,3.47,0.028,6.941,0.042,10.411
		c-8.172-1.036-16.795-0.619-25.011-0.715c-1.012-0.012-0.996,1.502,0,1.561c8.204,0.49,16.805,1.567,25.021,1.081
		c0.014,2.984,0.022,5.969,0.045,8.953c-8.051-1.626-16.939-1.095-25.063-0.634c-0.917,0.052-0.931,1.464,0,1.437
		c8.416-0.24,16.71,0.885,25.076,0.937c0.019,2.199,0.021,4.399,0.051,6.598c-8.181-0.873-16.932,0.156-25.129,0.24
		c-0.726,0.007-0.727,1.121,0,1.128c8.2,0.084,16.964,1.115,25.151,0.238c0.043,2.884,0.05,5.77,0.119,8.652
		c-8.504-0.076-16.702-0.206-25.245-1.008c-0.592-0.056-0.686,0.864-0.138,1.017c7.838,2.174,17.198,3.017,25.437,1.947
		c0.057,2.175,0.103,4.35,0.18,6.523c-0.229,0.086-0.421,0.234-0.576,0.408c-0.116-0.081-0.218-0.176-0.391-0.196
		c-8.451-0.948-17.87-0.861-26.344-0.123c-0.554,0.048-0.538,0.782,0,0.85c8.441,1.062,17.856,1.52,26.344,0.896
		c0.066-0.005,0.09-0.053,0.148-0.068c0.332,3.28-0.127,5.697-1.15,7.468c-0.01-0.409-0.271-0.803-0.804-0.789
		c-7.301,0.192-14.558,0.163-21.86,0.067c-0.67-0.008-0.639,0.952,0,1.02c7.221,0.773,14.605,0.925,21.86,0.598
		c0.161-0.007,0.25-0.104,0.364-0.172c-4.051,5.494-14.418,3.672-21.795,3.364c-8.678-0.362-17.336-0.203-25.975,0.716
		c0.376-42.992-0.604-86.477-2.713-129.417c-0.033-0.661-0.436-1.066-0.92-1.221c-0.262-0.509-0.739-0.905-1.48-0.919
		c-40.411-0.752-81.414-3.498-121.814-1.715c-9.209-6.242-6.224-31.741-6.44-41.071C23.91,26.136,23.478,16.313,24.49,6.42
		c10.294-6.64,80.34-2.757,89.451-2.632c15.122,0.208,30.242,0.535,45.358,0.983c9.698,0.287,43.93-3.588,48.79,6.83
		c0.037,0.078,0.088,0.127,0.136,0.183c-9.537-0.393-19.238,0.033-28.769,0.273c-1.133,0.028-1.135,1.733,0,1.762
		c9.543,0.24,19.258,0.668,28.806,0.272c-0.058,2.533-0.164,5.06-0.328,7.581c-9.894,0.42-19.384,1.699-29.371,1.156
		C177.451,22.767,177.5,24.407,178.562,24.528z"/>
	<path style="fill:#1D1D1B;" d="M46.73,17.134c-0.062-0.032-0.084-0.099-0.161-0.116c-5.54-1.25-9.486,4.626-9.923,9.572
		c-0.485,5.48,3.802,10.202,9.353,10.206c5.042,0.004,9.188-4.589,9.336-9.504C55.48,22.47,51.536,17.756,46.73,17.134z
		 M47.409,33.625c-9.54,2.502-9.869-13.109-2.629-14.758c0.141,0.255,0.373,0.466,0.706,0.572c3.09,0.986,5.966,2.514,6.751,5.97
		C53.01,28.813,50.846,32.724,47.409,33.625z"/>
	<path style="fill:#1D1D1B;" d="M204.092,44.275c-7.323,0.943-14.536,1.91-21.911,2.389c-0.876,0.057-0.893,1.361,0,1.376
		c7.34,0.118,14.971-0.352,22.167-1.867C205.395,45.952,205.181,44.135,204.092,44.275z"/>
	<path style="fill:#1D1D1B;" d="M205.011,33.61c-8.553,0.833-16.945,1.72-25.549,1.886c-0.827,0.016-0.824,1.254,0,1.283
		c8.528,0.303,17.368,0.073,25.787-1.408C206.234,35.198,206.018,33.512,205.011,33.61z"/>
</g>
</svg>
