<svg version="1.1" id="Layer_1" xmlns="http://www.w3.org/2000/svg" xmlns:xlink="http://www.w3.org/1999/xlink" x="0px" y="0px"
	 viewBox="0 0 503.253 503.253" style="enable-background:new 0 0 503.253 503.253;" xml:space="preserve">
<g transform="translate(1 11)">
	<path style="fill:#ECF4F7;" d="M404.333,308.893H498.2c0,0-17.067,34.133-51.2,34.133h-59.733l-1.707-0.853
		c5.973-11.093,11.093-22.187,15.36-34.133L404.333,308.893z M412.867,223.56H498.2c0,0-17.067,34.133-51.2,34.133h-34.133h-0.853
		c0.853-5.12,0.853-11.093,0.853-17.067C412.867,234.653,412.867,229.533,412.867,223.56L412.867,223.56z M387.267,138.227H498.2
		c0,0-17.067,34.133-51.2,34.133h-42.667l-2.56,0.853c-4.267-11.947-9.387-23.04-15.36-34.133L387.267,138.227z M344.6,394.227
		h153.6c0,0-17.067,34.133-51.2,34.133h-85.333l-25.6,17.067h-128C260.12,445.427,307.907,425.8,344.6,394.227L344.6,394.227z"/>
	<path style="fill:#ECF4F7;" d="M412.013,223.56c0.853,5.12,0.853,11.093,0.853,17.067c0,5.973,0,11.093-0.853,17.067
		c-1.707,17.067-5.12,34.133-11.093,50.347c-4.267,11.947-9.387,23.04-15.36,34.133c-11.093,19.627-24.747,36.693-41.813,51.2
		c-35.84,32.427-83.627,52.053-135.68,52.053c-112.64,0-204.8-92.16-204.8-204.8c0-113.493,92.16-204.8,204.8-204.8
		c75.947,0,142.507,41.813,177.493,103.253c5.973,11.093,11.947,22.187,15.36,34.133C406.893,189.427,411.16,206.493,412.013,223.56
		"/>
	<path style="fill:#ECF4F7;" d="M326.68,230.387c0,3.413,0.853,6.827,0.853,10.24s0,6.827-0.853,10.24
		c-0.853,10.24-2.56,20.48-5.973,29.013c-2.56,6.827-5.12,13.653-9.387,19.627c-6.827,11.093-14.507,21.333-24.747,29.867
		c-21.333,18.773-48.64,29.867-79.36,29.867c-65.707,0-119.467-53.76-119.467-119.467s53.76-119.467,119.467-119.467
		c44.373,0,82.773,23.893,104.107,60.587c3.413,5.973,6.827,12.8,9.387,19.627C324.12,210.76,326.68,220.147,326.68,230.387"/>
</g>
<path style="fill:#51565F;" d="M337.067,460.693H320c-2.56,0-4.267-1.707-4.267-4.267c0-2.56,1.707-4.267,4.267-4.267h15.36
	l24.747-16.213c0.853-0.853,1.707-0.853,2.56-0.853H448c22.187,0,36.693-16.213,43.52-25.6H388.267c-2.56,0-4.267-1.707-4.267-4.267
	s1.707-4.267,4.267-4.267H499.2c1.707,0,2.56,0.853,3.413,1.707c0.853,0.853,0.853,2.56,0,4.267
	c-0.853,1.707-18.773,36.693-54.613,36.693h-83.627l-24.747,16.213C338.773,460.693,337.92,460.693,337.067,460.693z
	 M209.067,460.693C93.867,460.693,0,366.827,0,251.627S93.867,42.56,209.067,42.56s209.067,93.867,209.067,209.067
	S324.267,460.693,209.067,460.693z M209.067,51.093c-110.933,0-200.533,89.6-200.533,200.533s89.6,200.533,200.533,200.533
	S409.6,362.56,409.6,251.627S320,51.093,209.067,51.093z M209.067,375.36c-68.267,0-123.733-55.467-123.733-123.733
	S140.8,127.893,209.067,127.893c2.56,0,4.267,1.707,4.267,4.267c0,2.56-1.707,4.267-4.267,4.267c-63.147,0-115.2,52.053-115.2,115.2
	s52.053,115.2,115.2,115.2s115.2-52.053,115.2-115.2c0-2.56,1.707-4.267,4.267-4.267s4.267,1.707,4.267,4.267
	C332.8,319.893,277.333,375.36,209.067,375.36z M448,358.293h-25.6c-2.56,0-4.267-1.707-4.267-4.267c0-2.56,1.707-4.267,4.267-4.267
	H448c22.187,0,36.693-16.213,43.52-25.6H435.2c-2.56,0-4.267-1.707-4.267-4.267s1.707-4.267,4.267-4.267h64
	c1.707,0,2.56,0.853,3.413,1.707c0.853,0.853,0.853,2.56,0,4.267C502.613,323.307,484.693,358.293,448,358.293z M448,272.96h-4.267
	c-2.56,0-4.267-1.707-4.267-4.267c0-2.56,1.707-4.267,4.267-4.267H448c22.187,0,36.693-16.213,43.52-25.6h-47.787
	c-2.56,0-4.267-1.707-4.267-4.267c0-2.56,1.707-4.267,4.267-4.267H499.2c1.707,0,2.56,0.853,3.413,1.707
	c0.853,0.853,0.853,2.56,0,4.267C502.613,237.973,484.693,272.96,448,272.96z M323.413,221.76c-1.707,0-3.413-0.853-4.267-3.413
	c-11.093-37.547-40.107-66.56-77.653-77.653c-2.56-0.853-3.413-3.413-2.56-5.12c0.853-2.56,3.413-3.413,5.12-2.56
	c40.107,11.947,71.68,42.667,83.627,83.627c0.853,2.56-0.853,4.267-2.56,5.12C324.267,221.76,324.267,221.76,323.413,221.76z
	 M448,187.627h-12.8c-2.56,0-4.267-1.707-4.267-4.267c0-2.56,1.707-4.267,4.267-4.267H448c22.187,0,36.693-16.213,43.52-25.6H422.4
	c-2.56,0-4.267-1.707-4.267-4.267s1.707-4.267,4.267-4.267h76.8c1.707,0,2.56,0.853,3.413,1.707c0.853,0.853,0.853,2.56,0,4.267
	C502.613,152.64,484.693,187.627,448,187.627z"/>
</svg>
