
<svg version="1.1" id="Layer_1" xmlns="http://www.w3.org/2000/svg" xmlns:xlink="http://www.w3.org/1999/xlink" x="0px" y="0px"
	 viewBox="0 0 512 512" style="enable-background:new 0 0 512 512;" xml:space="preserve">
<g>
	<g>
		<g>
			<path d="M42.667,187.733h426.667c0.06,0,0.111-0.009,0.171,0c4.71,0,8.533-3.823,8.533-8.533c0-2.569-1.135-4.864-2.927-6.426
				c-8.192-9.856-62.959-68.079-210.577-70.272v-1.314c14.677-3.814,25.6-17.067,25.6-32.922c0-18.825-15.309-34.133-34.133-34.133
				c-18.825,0-34.133,15.309-34.133,34.133c0,15.855,10.923,29.107,25.6,32.922v1.323C89.702,104.858,37.999,171.204,35.84,174.08
				c-1.937,2.586-2.253,6.042-0.811,8.934C36.48,185.907,39.433,187.733,42.667,187.733z M238.933,68.267
				c0-9.412,7.654-17.067,17.067-17.067c9.412,0,17.067,7.654,17.067,17.067c0,9.412-7.654,17.067-17.067,17.067
				C246.588,85.333,238.933,77.679,238.933,68.267z M256,119.467c109.722,0,167.322,32.162,191.812,51.2H64
				C88.218,151.646,145.527,119.467,256,119.467z"/>
			<path d="M426.667,213.333c0-4.71-3.823-8.533-8.533-8.533s-8.533,3.823-8.533,8.533V230.4c0,4.71,3.823,8.533,8.533,8.533
				s8.533-3.823,8.533-8.533V213.333z"/>
			<path d="M418.133,256c-4.71,0-8.533,3.823-8.533,8.533V332.8c0,4.71,3.823,8.533,8.533,8.533s8.533-3.823,8.533-8.533v-68.267
				C426.667,259.823,422.844,256,418.133,256z"/>
			<path d="M486.4,204.8h-34.133c-4.71,0-8.533,3.823-8.533,8.533V435.2c0,14.114-11.486,25.6-25.6,25.6H93.867
				c-14.114,0-25.6-11.486-25.6-25.6V213.333c0-4.71-3.823-8.533-8.533-8.533H25.6C11.486,204.8,0,216.286,0,230.4v68.267
				c0,14.114,11.486,25.6,25.6,25.6c4.71,0,8.533-3.823,8.533-8.533S30.31,307.2,25.6,307.2c-4.702,0-8.533-3.831-8.533-8.533V230.4
				c0-4.702,3.831-8.533,8.533-8.533h25.6V435.2c0,23.526,19.14,42.667,42.667,42.667h324.267c23.526,0,42.667-19.14,42.667-42.667
				V221.867h25.6c4.702,0,8.533,3.831,8.533,8.533v68.267c0,4.702-3.831,8.533-8.533,8.533c-4.71,0-8.533,3.823-8.533,8.533
				s3.823,8.533,8.533,8.533c14.114,0,25.6-11.486,25.6-25.6V230.4C512,216.286,500.514,204.8,486.4,204.8z"/>
		</g>
	</g>
</g>
</svg>
