<svg version="1.1" id="Capa_1" xmlns="http://www.w3.org/2000/svg" xmlns:xlink="http://www.w3.org/1999/xlink" x="0px" y="0px"
	 viewBox="0 0 455.63 455.63" style="enable-background:new 0 0 455.63 455.63;" xml:space="preserve">
<path d="M455.63,222.549h-9.968v-4.712c0-8.8-5.987-16.209-14.096-18.419v-60.715c0-11.622-9.456-21.078-21.078-21.078H45.143
	c-11.622,0-21.078,9.456-21.078,21.078v60.715c-8.109,2.21-14.097,9.619-14.097,18.419v4.712H0v85.771h16.564v29.685h29.892V308.32
	h362.719v29.685h29.891V308.32h16.564V222.549z M45.143,124.625h365.346c7.763,0,14.078,6.315,14.078,14.078v60.026h-43.293
	c10.75-4.5,20.627-11.093,29.115-19.582l2.476-2.475l-2.476-2.475c-17.142-17.142-39.933-26.582-64.175-26.582
	s-47.033,9.44-64.174,26.583l-2.475,2.475l2.475,2.475c8.488,8.489,18.365,15.082,29.115,19.583H144.475
	c10.75-4.5,20.627-11.093,29.115-19.582l2.476-2.475l-2.476-2.475c-17.142-17.142-39.933-26.582-64.175-26.582
	s-47.033,9.44-64.175,26.582l-2.476,2.475l2.476,2.475c8.489,8.489,18.366,15.082,29.115,19.582H31.064v-60.026
	C31.064,130.94,37.38,124.625,45.143,124.625z M346.214,198.728c-21.178,0-41.153-7.805-56.645-22.057
	c15.491-14.252,35.467-22.057,56.645-22.057s41.153,7.805,56.646,22.057C387.367,190.923,367.392,198.728,346.214,198.728z
	 M109.416,198.728c-21.178,0-41.153-7.805-56.646-22.057c15.492-14.252,35.468-22.057,56.646-22.057s41.153,7.805,56.646,22.057
	C150.569,190.923,130.594,198.728,109.416,198.728z M16.968,217.837c0-6.677,5.432-12.108,12.108-12.108h397.478
	c6.677,0,12.108,5.432,12.108,12.108v4.712H16.968V217.837z M39.456,331.005H23.564V308.32h15.892V331.005z M432.065,331.005
	h-15.891V308.32h15.891V331.005z M448.63,301.32H7v-71.771h441.63V301.32z"/>
</svg>
