<svg version="1.1" id="Layer_1" xmlns="http://www.w3.org/2000/svg" xmlns:xlink="http://www.w3.org/1999/xlink" x="0px" y="0px"
	 viewBox="0 0 64 64" enable-background="new 0 0 64 64" xml:space="preserve">
<path id="Fire-extinguisher" d="M51.585392,0.197609c-0.2606888-0.1911-0.5982971-0.2492-0.9056892-0.1497l-8.1354103,2.5215001
	c-0.4244995,0.1309998-0.7134972,0.5210998-0.7134972,0.9624v1.3464H21.8339939c-0.2402916,0-0.4731998,0.0847001-0.6564007,0.2384
	l-8.8170986,7.3932996c-0.4289999,0.3594999-0.4827003,0.9958-0.1202002,1.4212999
	c0.2011003,0.2364006,0.4881001,0.3576002,0.7770996,0.3576002c0.2319002,0,0.4653091-0.0777998,0.6559-0.2383995
	l8.5331001-7.1549001h5.3507996v7.7172999c-5.0324001,2.1083994-7.9317989,9.1964006-7.9317989,32.3036003
	c0,5.7099991,0.5983086,11.3460007,1.7304993,16.2975998c0.1047001,0.4598999,0.5163994,0.7859993,0.9915009,0.7859993h22.0470982
	c0.4752083,0,0.8867989-0.3260994,0.9916-0.7859993c1.1330986-4.9554977,1.7318993-10.5915985,1.7318993-16.2975998
	c0-24.1737003-3.1722908-30.8176003-8.6412888-32.5667992V6.8955092h3.3540916v1.6783996
	c0,0.4413004,0.2889977,0.8312998,0.7134972,0.9623003l8.1354103,2.5226002
	c0.0992889,0.0314999,0.2015915,0.0462999,0.3033905,0.0462999c0.2140007,0,0.425499-0.0670004,0.6022987-0.1960001
	c0.2607002-0.1900997,0.4146004-0.4914999,0.4146004-0.8127003V1.0102091
	C51.9999924,0.689109,51.8460922,0.387709,51.585392,0.197609z M44.4647942,31.7217083
	c0.3984985,3.988802,0.6194,8.958601,0.6194,15.1947002c0,1.7461014-0.0782013,3.4743004-0.1910019,5.1869011H34.8077011V31.7309093
	h9.6110916C44.4351921,31.7309093,44.4487038,31.7224083,44.4647942,31.7217083z M44.2387924,29.7136097h-10.447998
	c-0.5615997,0-1.0168991,0.4511986-1.0168991,1.0086994v22.389698c0,0.5575027,0.4552994,1.0086021,1.0168991,1.0086021h10.952198
	c-0.2525978,2.7313004-0.6362915,5.3823013-1.1662903,7.8620987H23.1652946
	c-0.9862003-4.6156006-1.5060997-9.8045006-1.5060997-15.0662994c0-31.1451988,5.4277992-31.1451988,11.7125092-31.1451988
	C38.1773949,15.7712088,42.4787941,15.7887087,44.2387924,29.7136097z M33.3717041,13.7539091
	c-1.3459091,0-2.6083107,0.0558996-3.7807102,0.2697001V7.0620089h6.8518009v6.8520002
	C35.4747925,13.7899094,34.4501953,13.7539091,33.3717041,13.7539091z M49.9661942,9.7244091l-6.10149-1.8922V4.273509
	l6.10149-1.8912001V9.7244091z"/>
</svg>