<svg version="1.1" id="Layer_1" xmlns="http://www.w3.org/2000/svg" xmlns:xlink="http://www.w3.org/1999/xlink" x="0px" y="0px"
	 viewBox="0 0 246.72 246.72" style="enable-background:new 0 0 246.72 246.72;" xml:space="preserve">
<g>
	<g>
		<g>
			<path d="M231.702,207.748c-3.96,0-7.18,3.22-7.18,7.18c0,3.96,3.22,7.18,7.18,7.18c3.96,0,7.18-3.22,7.18-7.18
				C238.882,210.968,235.662,207.748,231.702,207.748z M231.702,219.536c-2.54,0-4.608-2.068-4.608-4.608
				c0-2.54,2.068-4.608,4.608-4.608c2.54,0,4.608,2.068,4.608,4.608C236.31,217.468,234.242,219.536,231.702,219.536z"/>
			<path d="M193.886,188.856c3.604,0,6.544-2.936,6.544-6.548s-2.936-6.548-6.544-6.548c-3.608,0-6.548,2.936-6.548,6.548
				S190.278,188.856,193.886,188.856z M193.886,178.336c2.188,0,3.972,1.78,3.972,3.976c0,2.196-1.784,3.976-3.972,3.976
				c-2.192,0-3.976-1.78-3.976-3.976C189.91,180.116,191.694,178.336,193.886,178.336z"/>
			<path d="M211.922,181.656c6.716,0,12.18-5.464,12.18-12.18s-5.464-12.18-12.18-12.18s-12.18,5.464-12.18,12.18
				C199.742,176.188,205.206,181.656,211.922,181.656z M211.922,159.864c5.3,0,9.612,4.312,9.612,9.612s-4.312,9.612-9.612,9.612
				c-5.296,0-9.608-4.312-9.608-9.612S206.626,159.864,211.922,159.864z"/>
			<path d="M224.706,231.316h-2.508c-1.488-3.428-4.888-5.72-8.688-5.72c-0.016,0-0.032,0-0.044,0
				c0.124-0.92,0.184-1.836,0.184-2.736c0-11.996-9.756-21.748-21.748-21.748c-2.304,0-4.508,0.416-6.604,1.088
				c-2.468-7.452-8.6-15.912-17.488-23.244c-2.288-1.888-4.656-3.588-7.044-5.112v-67.24c0-9.004-6.192-27.676-20.724-35.7
				c0,0-0.064-29.188-0.092-29.14c-0.48-4.096-7.88-5.992-14.832-5.992c-6.44,0-13.272,1.62-14.636,5.108
				c-0.008-0.02-0.024-0.036-0.036-0.056l-0.264,29.916c-15.28,8.18-20.724,27.916-20.724,35.864v35.22
				c-0.984-0.256-1.996-0.436-3.056-0.436c-2.736,0-5.236,0.94-7.268,2.468V97.412c0-14.74-6.456-45.712-21.72-58.024
				c0.596-0.636,1-1.344,1-2.192V6.272c-0.008,0.008-0.016,0.016-0.024,0.024C58.266,1.976,50.618,0,43.486,0
				c-6.5,0-13.388,1.656-14.656,5.216c-0.02-0.036-0.264,31.98-0.264,31.98c0,0.808,0.32,1.488,0.824,2.08
				C13.458,51.9,7.838,84.464,7.838,97.412V229.74c0,7.764,17.936,11.828,35.648,11.828c1.292,0,2.58-0.052,3.864-0.1
				c1.032,1.22,2.288,2.24,3.708,2.988c1.66,0.876,65.724,0.012,65.724,0.012c3.968,0,7.196-3.228,7.196-7.192
				c0-0.376-0.1-0.732-0.16-1.096h17.792h1.156c0.004-0.004,0.008-0.008,0.016-0.012c-0.276,0.688-0.436,1.436-0.436,2.22
				c0,3.324,2.708,6.024,6.028,6.024c3.32,0,6.024-2.704,6.024-6.024c0-0.352-0.044-0.692-0.104-1.024
				c1.516,0.24,2.988,0.404,4.364,0.404c0.596,0,1.144-0.08,1.7-0.144c-0.088,0.46-0.188,0.916-0.188,1.388
				c0,4.252,3.456,7.708,7.708,7.708h56.824c4.252,0,7.708-3.456,7.708-7.708C232.414,234.772,228.954,231.316,224.706,231.316z
				 M135.686,113.216c9.196-0.32,17.028-1.044,21.476-2.032v10.656c-1.944,1.024-9.428,2.216-21.264,2.688
				c0.896-1.64,1.452-3.484,1.452-5.468C137.35,116.924,136.714,114.944,135.686,113.216z M136.498,72.7
				c-0.54,0.82-4.812,2.284-11.388,2.284c-6.58,0-10.848-1.464-11.328-2.016V46.472c1.56,0.748,3.484,1.296,5.596,1.636
				c0.532,2.84,3.012,4.988,5.952,4.988c2.964,0,5.464-2.192,5.96-5.076c1.936-0.34,3.7-0.856,5.144-1.548v25.14L136.498,72.7z
				 M120.49,48.256c1.512,0.188,3.076,0.3,4.62,0.3c1.7,0,3.424-0.12,5.072-0.352c-0.556,2.212-2.516,3.86-4.852,3.86
				C123.01,52.068,121.066,50.444,120.49,48.256z M125.11,39.368c7.176,0,11,1.996,11.316,2.796
				c-0.324,0.8-4.148,2.796-11.316,2.796c-7.268,0-11.1-2.048-11.332-2.764C114.006,41.416,117.834,39.368,125.11,39.368z
				 M93.054,106.6h0.004c0-7.992,5.312-24.356,17.724-31.916c1.92,2.824,8.508,3.896,14.324,3.896
				c1.332,0,11.684-0.124,14.312-3.772c12.284,7.672,17.736,24.088,17.736,31.792v2.464c-4.388,1.072-12.9,1.844-22.968,2.144
				c-2.212-2.38-5.38-3.904-8.936-3.904c-3.556,0-6.724,1.524-8.94,3.904c-10.296-0.304-18.964-1.108-23.256-2.216V106.6z
				 M135.294,119.06c0,5.352-4.504,9.708-10.04,9.708c-5.536,0-10.044-4.352-10.044-9.708c0-5.348,4.504-9.704,10.044-9.704
				C130.79,109.356,135.294,113.712,135.294,119.06z M114.606,124.524c-12.424-0.496-20.108-1.788-21.548-2.84v-10.56
				c4.396,1.02,12.376,1.768,21.76,2.096c-1.028,1.728-1.66,3.704-1.66,5.84C113.158,121.044,113.714,122.884,114.606,124.524z
				 M86.402,143.956c5.292,0,9.596,4.304,9.596,9.596c0,0.776-0.12,1.58-0.384,2.536l0.3,0.592l0.484,0.948
				c2.148,0.816,3.536,2.816,3.536,5.092c0,3.016-2.456,5.464-5.468,5.464c-2.532,0-4.716-1.728-5.304-4.204l-0.804-0.476
				c0,0-1.56-0.36-1.952-0.36c-5.292,0-9.596-4.304-9.596-9.596C76.81,148.256,81.11,143.956,86.402,143.956z M89.462,189.236
				v10.936c-3.892,0.612-7.436,2.264-10.324,4.688v-41.612c2.036,1.528,4.536,2.468,7.268,2.468c0.2,0,0.4-0.012,0.604-0.028
				c0.448,1.132,1.192,2.06,2.052,2.86v6.96c-2.88,0.936-4.98,3.612-4.98,6.8C84.078,185.644,86.374,188.432,89.462,189.236z
				 M86.65,182.312c0-2.54,2.068-4.608,4.608-4.608c2.54,0,4.608,2.068,4.608,4.608c0,2.54-2.068,4.608-4.608,4.608
				C88.722,186.92,86.65,184.852,86.65,182.312z M75.534,97.412v6.06c-1.704,1.04-9.272,2.284-21.408,2.772
				c0.896-1.64,1.456-3.484,1.456-5.468c0-2.136-0.632-4.112-1.66-5.84c9.224-0.312,16.94-1.032,21.412-2.028
				C75.454,94.532,75.534,96.076,75.534,97.412z M54.878,36.928c-0.54,0.82-4.812,2.284-11.392,2.284
				c-6.576,0-10.848-1.464-11.324-2.016V10.7c1.5,0.72,3.34,1.252,5.368,1.592c0.516,2.868,3.004,5.04,5.96,5.04
				s5.448-2.172,5.96-5.04c2.024-0.34,3.868-0.872,5.368-1.592v25.14L54.878,36.928z M38.634,12.46
				c1.584,0.208,3.228,0.324,4.852,0.324s3.268-0.116,4.852-0.324c-0.564,2.204-2.52,3.844-4.852,3.844
				C41.158,16.304,39.202,14.668,38.634,12.46z M43.486,3.6c7.172,0,11,1.996,11.32,2.796c-0.324,0.8-4.148,2.796-11.32,2.796
				c-7.264,0-11.1-2.048-11.328-2.764C32.386,5.648,36.222,3.6,43.486,3.6z M32.758,41.324c4.068,1.42,9.764,1.488,10.728,1.488
				c3.68,0,7.648-0.44,10.584-1.46C66.982,50.5,73.61,75.224,75.166,90.836c-4.452,1.04-12.848,1.792-22.744,2.084
				c-2.216-2.38-5.384-3.904-8.936-3.904s-6.724,1.524-8.936,3.904c-9.92-0.292-18.332-1.048-22.772-2.092
				C13.266,74.988,19.742,50.408,32.758,41.324z M53.526,100.776c0,5.348-4.504,9.704-10.044,9.704c-5.54,0-10.04-4.352-10.04-9.704
				s4.5-9.704,10.04-9.704S53.526,95.424,53.526,100.776z M11.434,97.412c0-1.352,0.076-2.892,0.188-4.508
				c4.468,1,12.196,1.716,21.428,2.032c-1.024,1.728-1.66,3.704-1.66,5.84c0,1.984,0.556,3.824,1.452,5.464
				c-12.132-0.484-19.712-1.728-21.408-2.768V97.412z M43.486,237.972c-19.564,0-32.052-4.876-32.052-8.228V105.588
				c4.56,1.816,14.948,2.508,22.884,2.768c2.22,2.532,5.484,4.176,9.168,4.176s6.948-1.644,9.172-4.176
				c7.936-0.26,18.32-0.952,22.88-2.768v42.604c-0.804,1.624-1.3,3.428-1.3,5.36s0.496,3.736,1.3,5.36v49.844
				c-2.508,3.488-4.004,7.752-4.004,12.368c0,1.08,0.092,2.176,0.268,3.276c-2.088-0.168-4.08,0.416-5.748,1.592
				c-2.304-2.852-5.736-4.52-9.436-4.52c-6.716,0-12.18,5.464-12.18,12.18c0,1.516,0.312,2.952,0.82,4.292
				C44.662,237.952,44.086,237.972,43.486,237.972z M120.35,234.4c0.692,0.852,1.056,1.844,1.056,2.884
				c0,2.548-2.072,4.62-4.624,4.62c0,0-63.696,0.852-65.148-0.032c-2.772-1.688-4.632-4.74-4.632-8.216
				c0-5.3,4.312-9.612,9.608-9.612c3.296,0,6.332,1.684,8.108,4.504l1.988,0.232c1.208-1.184,2.788-1.836,4.444-1.836
				c0.588,0,1.196,0.104,1.924,0.328l1.624-1.548c-0.392-1.548-0.596-3.096-0.596-4.6c0-10.292,8.376-18.664,18.664-18.664
				c9.432,0,17.392,7.056,18.516,16.416l1.436,1.116c4.792,0,8.688,3.896,8.688,8.688c0,1.468-0.392,2.904-1.172,4.272L120.35,234.4
				z M123.171,232.584c0.491-1.271,0.803-2.569,0.803-3.908c0-5.816-4.436-10.62-10.3-11.184
				c-1.724-10.016-10.376-17.44-20.616-17.584v-10.68c3.088-0.804,5.38-3.588,5.38-6.924c0-3.48-2.488-6.384-5.78-7.04v-4.788
				c0.588,0.136,1.176,0.276,1.804,0.276c4.436,0,8.04-3.608,8.04-8.036c0-2.924-1.632-5.616-4.156-7.012
				c0.148-0.76,0.224-1.46,0.224-2.156c0-4.252-2.2-7.988-5.512-10.164v-19.572c4.48,1.86,15,2.564,23.024,2.824
				c2.22,2.536,5.488,4.18,9.172,4.18c3.684,0,6.948-1.644,9.168-4.18c7.848-0.256,18.1-0.936,22.736-2.704v47.76
				c-4.128-2.272-8.268-3.952-12.2-4.888c-7.8-1.852-13.96-0.636-17.32,3.432c-0.484,0.588-0.88,1.236-1.228,1.912l-0.38,0.036
				l-11.748,14.232c-3.58,4.34-3.844,10.864-0.74,18.372c2.952,7.132,8.636,14.408,16.016,20.5c3.528,2.912,7.252,5.34,11.004,7.296
				H123.171z M148.37,241.848c-1.904,0-3.456-1.548-3.456-3.452s1.552-3.456,3.456-3.456s3.452,1.552,3.452,3.456
				S150.278,241.848,148.37,241.848z M160.822,234.004c-2.168,0.264-4.632,0.16-7.384-0.396c-0.792-0.164-1.596-0.368-2.404-0.592
				c-0.552-0.276-1.144-0.464-1.772-0.56c-5.796-1.92-11.84-5.34-17.416-9.94c-6.928-5.716-12.244-12.5-14.976-19.096
				c-2.572-6.22-2.504-11.44,0.192-14.708l8.104-9.82c0.152,2.736,0.924,5.76,2.392,9.008c3.116,6.904,8.892,14.052,16.252,20.132
				c3.172,2.616,6.512,4.928,9.92,6.868c0.86,0.488,1.964,0.192,2.456-0.676c0.488-0.864,0.188-1.964-0.676-2.456
				c-3.236-1.836-6.396-4.028-9.412-6.516c-6.944-5.732-12.364-12.424-15.26-18.836c-2.672-5.916-2.824-10.976-0.416-13.888
				c2.4-2.912,7.404-3.728,13.712-2.216c6.848,1.628,14.44,5.68,21.388,11.416c8.328,6.876,14.188,15.06,16.396,21.876
				c-5.76,2.996-10.08,8.456-11.36,15.12c-5.84,0.692-10.388,5.672-10.388,11.696C160.17,231.648,160.43,232.84,160.822,234.004z
				 M224.706,243.128h-56.828c-2.268,0-4.108-1.844-4.108-4.108c0-1.16,0.512-2.032,0.94-2.564l0.164-2.024
				c-0.728-1.284-1.104-2.632-1.104-4.012c0-4.5,3.652-8.16,8.308-8.16c0.012,0,0.02,0,0.028,0l1.784-1.584
				c1.096-9.104,8.836-15.964,18.004-15.964c10.008,0,18.152,8.144,18.152,18.152c0,1.452-0.196,2.956-0.58,4.48l2.284,2.156
				c0.652-0.204,1.228-0.304,1.756-0.304c2.648,0,4.988,1.804,5.68,4.388l1.74,1.332h3.78c2.268,0,4.108,1.844,4.108,4.104
				C228.814,241.284,226.97,243.128,224.706,243.128z"/>
		</g>
	</g>
</g>
</svg>